<mxfile host="Electron" modified="2024-11-23T08:58:57.744Z" agent="Mozilla/5.0 (X11; Linux x86_64) AppleWebKit/537.36 (KHTML, like Gecko) draw.io/24.6.1 Chrome/124.0.6367.207 Electron/30.0.6 Safari/537.36" etag="pmY_xTLLf_2N-kteq0N0" version="24.6.1" type="device">
  <diagram name="Page-1" id="cPBwv743tvNNcTL2DEEv">
    <mxGraphModel dx="548" dy="367" grid="1" gridSize="10" guides="1" tooltips="1" connect="1" arrows="1" fold="1" page="1" pageScale="1" pageWidth="850" pageHeight="1100" math="0" shadow="0">
      <root>
        <mxCell id="0" />
        <mxCell id="1" parent="0" />
        <mxCell id="czImtksq7BaxH8may4_F-6" value="1" style="rounded=0;whiteSpace=wrap;html=1;" vertex="1" parent="1">
          <mxGeometry x="390" y="490" width="20" height="40" as="geometry" />
        </mxCell>
        <mxCell id="czImtksq7BaxH8may4_F-7" value=".&lt;div&gt;.&lt;/div&gt;&lt;div&gt;.&lt;/div&gt;" style="rounded=0;whiteSpace=wrap;html=1;" vertex="1" parent="1">
          <mxGeometry x="390" y="420" width="160" height="70" as="geometry" />
        </mxCell>
        <mxCell id="czImtksq7BaxH8may4_F-8" value=".&lt;div&gt;.&lt;/div&gt;&lt;div&gt;.&lt;/div&gt;" style="rounded=0;whiteSpace=wrap;html=1;" vertex="1" parent="1">
          <mxGeometry x="390" y="530" width="160" height="70" as="geometry" />
        </mxCell>
        <mxCell id="czImtksq7BaxH8may4_F-9" value="300" style="text;html=1;align=center;verticalAlign=middle;whiteSpace=wrap;rounded=0;" vertex="1" parent="1">
          <mxGeometry x="340" y="605" width="60" height="30" as="geometry" />
        </mxCell>
        <mxCell id="czImtksq7BaxH8may4_F-10" value="200" style="text;html=1;align=center;verticalAlign=middle;whiteSpace=wrap;rounded=0;" vertex="1" parent="1">
          <mxGeometry x="340" y="495" width="60" height="30" as="geometry" />
        </mxCell>
        <mxCell id="czImtksq7BaxH8may4_F-11" value="100" style="text;html=1;align=center;verticalAlign=middle;whiteSpace=wrap;rounded=0;" vertex="1" parent="1">
          <mxGeometry x="340" y="385" width="60" height="30" as="geometry" />
        </mxCell>
        <mxCell id="czImtksq7BaxH8may4_F-12" value="xxx" style="rounded=0;whiteSpace=wrap;html=1;" vertex="1" parent="1">
          <mxGeometry x="410" y="490" width="50" height="40" as="geometry" />
        </mxCell>
        <mxCell id="czImtksq7BaxH8may4_F-13" value="100" style="rounded=0;whiteSpace=wrap;html=1;" vertex="1" parent="1">
          <mxGeometry x="460" y="490" width="90" height="40" as="geometry" />
        </mxCell>
        <mxCell id="czImtksq7BaxH8may4_F-14" value="1" style="rounded=0;whiteSpace=wrap;html=1;" vertex="1" parent="1">
          <mxGeometry x="390" y="600" width="20" height="40" as="geometry" />
        </mxCell>
        <mxCell id="czImtksq7BaxH8may4_F-15" value="xxx" style="rounded=0;whiteSpace=wrap;html=1;" vertex="1" parent="1">
          <mxGeometry x="410" y="600" width="50" height="40" as="geometry" />
        </mxCell>
        <mxCell id="czImtksq7BaxH8may4_F-16" value="200" style="rounded=0;whiteSpace=wrap;html=1;" vertex="1" parent="1">
          <mxGeometry x="460" y="600" width="90" height="40" as="geometry" />
        </mxCell>
        <mxCell id="czImtksq7BaxH8may4_F-17" value="0" style="rounded=0;whiteSpace=wrap;html=1;" vertex="1" parent="1">
          <mxGeometry x="390" y="380" width="20" height="40" as="geometry" />
        </mxCell>
        <mxCell id="czImtksq7BaxH8may4_F-18" value="xxx" style="rounded=0;whiteSpace=wrap;html=1;" vertex="1" parent="1">
          <mxGeometry x="410" y="380" width="50" height="40" as="geometry" />
        </mxCell>
        <mxCell id="czImtksq7BaxH8may4_F-19" value="0" style="rounded=0;whiteSpace=wrap;html=1;" vertex="1" parent="1">
          <mxGeometry x="460" y="380" width="90" height="40" as="geometry" />
        </mxCell>
        <mxCell id="czImtksq7BaxH8may4_F-20" value="I" style="text;html=1;align=center;verticalAlign=middle;whiteSpace=wrap;rounded=0;" vertex="1" parent="1">
          <mxGeometry x="390" y="350" width="20" height="30" as="geometry" />
        </mxCell>
        <mxCell id="czImtksq7BaxH8may4_F-21" value="Opcode" style="text;html=1;align=center;verticalAlign=middle;whiteSpace=wrap;rounded=0;" vertex="1" parent="1">
          <mxGeometry x="425" y="350" width="20" height="30" as="geometry" />
        </mxCell>
        <mxCell id="czImtksq7BaxH8may4_F-22" value="Address" style="text;html=1;align=center;verticalAlign=middle;whiteSpace=wrap;rounded=0;" vertex="1" parent="1">
          <mxGeometry x="495" y="350" width="20" height="30" as="geometry" />
        </mxCell>
      </root>
    </mxGraphModel>
  </diagram>
</mxfile>
